<?xml version="1.0" standalone="no"?>
<!DOCTYPE svg PUBLIC "-//W3C//DTD SVG 20010904//EN"
 "http://www.w3.org/TR/2001/REC-SVG-20010904/DTD/svg10.dtd">
<svg version="1.0" xmlns="http://www.w3.org/2000/svg"
 width="512.000000pt" height="512.000000pt" viewBox="0 0 512.000000 512.000000"
 preserveAspectRatio="xMidYMid meet">
<metadata>
Created by potrace 1.11, written by Peter Selinger 2001-2013
</metadata>
<g transform="translate(0.000000,512.000000) scale(0.100000,-0.100000)"
fill="#000000" stroke="none">
<path d="M685 5109 c-93 -14 -163 -37 -260 -87 -73 -37 -108 -64 -186 -142
-83 -82 -103 -109 -146 -197 -96 -190 -88 -3 -88 -2123 0 -2120 -8 -1933 88
-2123 43 -88 64 -115 146 -198 83 -82 110 -103 198 -146 190 -96 3 -88 2123
-88 2120 0 1933 -8 2123 88 88 43 115 64 198 146 82 83 103 110 146 198 96
190 88 3 88 2123 0 2120 8 1933 -88 2123 -43 88 -63 115 -146 197 -78 79 -113
105 -188 143 -51 26 -128 58 -170 70 l-78 22 -1850 1 c-1020 1 -1877 -2 -1910
-7z m2475 -1850 c660 -380 1200 -695 1200 -699 0 -7 -2392 -1390 -2405 -1390
-3 0 -5 625 -5 1390 0 765 2 1390 5 1390 3 0 546 -311 1205 -691z m-1520 -694
l0 -915 -280 0 -280 0 0 915 0 915 280 0 280 0 0 -915z"/>
</g>
</svg>
